<svg width="80" height="80" viewBox="0 0 80 80" fill="none" xmlns="http://www.w3.org/2000/svg">
<rect width="80" height="80" fill="#68B738"/>
<path d="M32.538 25C31.475 25 31.475 26.5831 32.538 26.5831H39.1815V28.1873C32.3786 28.62 27 34.4142 27 41.4854C27 45.4959 28.7432 49.1159 31.4963 51.5539C31.9746 51.976 32.0384 52.7254 31.6026 53.1897L30.0719 54.7412C29.3279 55.4272 30.4333 56.4931 31.103 55.7438L33.1014 53.7069C33.4521 53.3692 33.973 53.2847 34.4088 53.4958C36.1274 54.3397 38.0169 54.784 39.9341 54.795C41.8513 54.8059 43.7459 54.3833 45.4742 53.5591C45.8993 53.348 46.4308 53.4325 46.771 53.7702L48.7055 55.7438C49.3858 56.377 50.3638 55.4272 49.7472 54.7412L48.3016 53.2636C47.8552 52.8098 47.919 52.0605 48.4079 51.6277C49.8584 50.3585 51.0186 48.7959 51.8106 47.0447C52.6026 45.2936 53.0081 43.3944 52.9999 41.4748C52.9999 34.4036 47.5894 28.5989 40.7759 28.1873V26.5831H47.4194C48.4823 26.5831 48.4823 25 47.4194 25H32.538ZM28.435 41.4748C28.435 34.9419 33.6116 29.6543 39.9999 29.6543C46.3777 29.6543 51.5543 34.9419 51.5543 41.4748C51.5543 48.0183 46.3777 53.3164 39.9999 53.3164C33.6222 53.3164 28.435 48.0183 28.435 41.4748ZM39.1921 33.3799C39.1921 32.2823 40.8503 32.2823 40.8503 33.3799V42.0131C40.8503 42.237 40.7607 42.4517 40.6012 42.6101C40.4418 42.7684 40.2255 42.8574 39.9999 42.8574C39.7875 42.8574 39.5836 42.7743 39.4324 42.6262C39.2812 42.478 39.1949 42.2767 39.1921 42.0658V33.3799ZM34.2175 35.9973C34.5247 35.9973 34.8194 35.8761 35.0367 35.6603C35.254 35.4446 35.3761 35.152 35.3761 34.8469C35.3761 34.5418 35.254 34.2492 35.0367 34.0334C34.8194 33.8177 34.5247 33.6965 34.2175 33.6965C33.9307 33.7239 33.6645 33.8563 33.4707 34.0681C33.277 34.2798 33.1697 34.5556 33.1697 34.8416C33.1697 35.1277 33.277 35.4034 33.4707 35.6152C33.6645 35.8269 33.9307 35.9593 34.2175 35.9867V35.9973ZM45.7718 35.9973C46.0791 35.9973 46.3738 35.8761 46.5911 35.6603C46.8083 35.4446 46.9304 35.152 46.9304 34.8469C46.9304 34.5418 46.8083 34.2492 46.5911 34.0334C46.3738 33.8177 46.0791 33.6965 45.7718 33.6965C45.485 33.7239 45.2188 33.8563 45.0251 34.0681C44.8313 34.2798 44.724 34.5556 44.724 34.8416C44.724 35.1277 44.8313 35.4034 45.0251 35.6152C45.2188 35.8269 45.485 35.9593 45.7718 35.9867V35.9973ZM35.3761 48.5882C35.3761 50.1185 33.0588 50.1185 33.0588 48.5882C33.0588 47.0579 35.3761 47.0579 35.3761 48.5882ZM39.9999 52.0288C40.1607 52.0441 40.3229 52.0259 40.4762 51.9754C40.6294 51.9248 40.7703 51.843 40.8899 51.7352C41.0094 51.6273 41.1049 51.4959 41.1703 51.3493C41.2356 51.2026 41.2694 51.044 41.2694 50.8837C41.2694 50.7233 41.2356 50.5648 41.1703 50.4181C41.1049 50.2715 41.0094 50.14 40.8899 50.0322C40.7703 49.9244 40.6294 49.8426 40.4762 49.792C40.3229 49.7414 40.1607 49.7232 39.9999 49.7386C39.7132 49.7659 39.4469 49.8984 39.2532 50.1101C39.0595 50.3219 38.9522 50.5976 38.9522 50.8837C38.9522 51.1697 39.0595 51.4455 39.2532 51.6572C39.4469 51.869 39.7132 52.0014 39.9999 52.0288ZM31.9109 41.6437C31.9263 41.8033 31.908 41.9643 31.857 42.1165C31.8061 42.2687 31.7237 42.4086 31.6151 42.5273C31.5065 42.646 31.3741 42.7408 31.2264 42.8057C31.0788 42.8706 30.919 42.9041 30.7575 42.9041C30.596 42.9041 30.4363 42.8706 30.2886 42.8057C30.141 42.7408 30.0086 42.646 29.9 42.5273C29.7914 42.4086 29.709 42.2687 29.658 42.1165C29.6071 41.9643 29.5888 41.8033 29.6042 41.6437C29.6318 41.3589 29.7652 41.0946 29.9785 40.9023C30.1917 40.7099 30.4695 40.6033 30.7575 40.6033C31.0456 40.6033 31.3234 40.7099 31.5366 40.9023C31.7499 41.0946 31.8833 41.3589 31.9109 41.6437ZM49.237 42.794C49.3978 42.8094 49.56 42.7912 49.7132 42.7406C49.8665 42.6901 50.0074 42.6082 50.127 42.5004C50.2465 42.3926 50.342 42.2611 50.4074 42.1145C50.4727 41.9679 50.5065 41.8093 50.5065 41.6489C50.5065 41.4886 50.4727 41.33 50.4074 41.1834C50.342 41.0367 50.2465 40.9053 50.127 40.7975C50.0074 40.6896 49.8665 40.6078 49.7132 40.5573C49.56 40.5067 49.3978 40.4885 49.237 40.5038C48.9502 40.5312 48.684 40.6637 48.4903 40.8754C48.2966 41.0871 48.1892 41.3629 48.1892 41.6489C48.1892 41.935 48.2966 42.2108 48.4903 42.4225C48.684 42.6342 48.9502 42.7667 49.237 42.794ZM46.9304 48.5987C46.9304 50.1185 44.6132 50.1185 44.6132 48.5882C44.6132 47.0579 46.9304 47.0579 46.9304 48.5882V48.5987Z" fill="white"/>
</svg>
