<svg width="80" height="80" viewBox="0 0 80 80" fill="none" xmlns="http://www.w3.org/2000/svg">
<rect width="80" height="80" fill="#68B738"/>
<g clip-path="url(#clip0_94552_4039)">
<path d="M52.7754 26.767C52.6751 26.317 52.2963 26 51.8641 26C51.8623 26 51.8604 26 51.8585 26C46.9207 26.033 34.9132 26.916 30.0654 34.38C27.5473 38.258 27.3307 43.293 29.4213 49.345C29.4373 49.392 29.4701 49.424 29.4916 49.467C28.7444 51.44 28.4548 52.753 28.4473 52.79C28.3385 53.33 28.6619 53.862 29.1682 53.978C29.2338 53.993 29.2994 54 29.3651 54C29.7973 54 30.1863 53.679 30.281 53.21C30.3007 53.108 32.6894 42.837 41.1344 36.832C41.5657 36.526 41.6819 35.905 41.3941 35.445C41.1063 34.985 40.5251 34.86 40.0938 35.168C35.3051 38.573 32.3557 43.176 30.6213 46.824C29.3801 42.246 29.7054 38.447 31.6076 35.519C35.351 29.755 44.2301 28.365 49.5898 28.071C48.4366 29.872 47.1766 33.174 47.1766 39C47.1766 42.12 46.3469 44.522 44.7119 46.14C42.0907 48.731 37.8326 48.974 34.7182 48.724C34.2007 48.679 33.7516 49.095 33.7123 49.646C33.6729 50.196 34.0601 50.676 34.5757 50.718C35.1991 50.769 35.8648 50.8 36.5566 50.8C39.7273 50.8 43.4257 50.137 45.986 47.606C48.0204 45.595 49.0516 42.7 49.0516 39.001C49.0516 29.902 52.2673 27.905 52.2832 27.896C52.6732 27.687 52.8776 27.219 52.7754 26.767Z" fill="white"/>
</g>
<defs>
<clipPath id="clip0_94552_4039">
<rect width="30" height="32" fill="white" transform="translate(25 24)"/>
</clipPath>
</defs>
</svg>
