<svg width="80" height="80" viewBox="0 0 80 80" fill="none" xmlns="http://www.w3.org/2000/svg">
<rect width="80" height="80" fill="#68B738"/>
<path d="M37.875 26C36.2437 26 34.975 27.3594 34.975 29.0812C34.975 30.8031 36.2437 32.1625 37.875 32.1625C39.5063 32.1625 40.775 30.8031 40.775 29.0812C40.775 27.3594 39.5063 26 37.875 26ZM37.875 27.1781C38.8719 27.1781 39.5969 28.0209 39.5969 29.0812C39.5969 30.0781 38.8084 30.9844 37.875 30.9844C36.8781 30.9844 36.1531 30.1416 36.1531 29.0812C36.1531 28.0844 36.9325 27.1781 37.875 27.1781ZM27 50.7406C27 51.9188 27.4078 52.9156 28.3594 53.7313C29.3563 54.5831 30.5344 54.5106 30.5344 54.5106H49.5656C50.345 54.5106 51.3781 54.13 52.1937 53.0606C53.0366 52.0638 52.9822 50.7044 52.9822 50.7044V33.4856C52.9822 33.0506 52.8734 32.8875 52.2391 32.8875C51.6047 32.8875 51.5503 33.1594 51.5503 33.4766V50.6953C51.5322 50.9944 51.4778 51.7828 50.8072 52.4172C50.0731 53.0425 49.3572 52.9609 49.3572 52.9609C49.3572 52.9609 31.2322 52.9609 30.3259 52.9338C29.9816 52.8703 29.4197 52.7434 28.8759 52.0275C28.3684 51.3025 28.4681 50.3962 28.4681 50.3962V33.1775C28.4681 32.7153 28.2325 32.5431 27.7431 32.5431C27.2538 32.5431 27 32.7153 27 33.1231V50.7406ZM43.3125 34.4281C42.225 34.6637 41.1375 34.8088 39.0531 36.7844C36.9688 38.7781 35.4281 38.6875 33.8875 38.5969C32.3469 38.5063 30.7156 37.0563 30.4438 36.6938C30.1084 36.3403 29.5375 36.5759 29.3562 36.8116C29.2022 37.0472 29.2022 37.455 29.465 37.8084C30.7338 38.9866 31.9119 39.8928 34.1775 40.0741C36.4431 40.2916 38.6181 39.2675 40.0681 37.8084C41.5181 36.3584 42.2431 36.0866 43.3306 35.9053C45.9587 35.4884 47.4994 36.5216 48.4056 37.1741C49.4025 38.2616 49.6744 37.9534 49.9462 37.6453C50.49 36.9294 49.7197 36.3766 48.8588 35.7422C47.0463 34.5641 45.3244 34.1109 43.3306 34.4734L43.3125 34.4281ZM34.25 41.5875C33.0719 41.5875 32.1656 42.5844 32.1656 43.8531C32.1656 45.1219 33.0719 46.1188 34.25 46.1188C35.4281 46.1188 36.3344 45.1219 36.3344 43.8531C36.3344 42.5844 35.4281 41.5875 34.25 41.5875ZM46.0312 42.3669C44.4906 42.3669 43.2219 43.7262 43.2219 45.3575C43.2219 46.9888 44.4906 48.3481 46.0312 48.3481C47.5719 48.3481 48.8406 46.9888 48.8406 45.3575C48.8406 43.7262 47.5719 42.3669 46.0312 42.3669ZM46.0312 43.8169C46.8288 43.8169 47.4813 44.5147 47.4813 45.3575C47.4813 46.2184 46.8288 46.8981 46.0312 46.8981C45.2337 46.8981 44.5812 46.2003 44.5812 45.3575C44.5812 44.4966 45.2337 43.8169 46.0312 43.8169Z" fill="white"/>
</svg>
